<svg xmlns="http://www.w3.org/2000/svg" viewBox="0 0 48 48"><defs><style>.cls-1{fill:#201602;}</style></defs><title>Asset 32ldpi</title><g id="Layer_2" data-name="Layer 2"><g id="layer_1-2" data-name="layer 1"><path class="cls-1" d="M47,48H1a1,1,0,0,1-1-1V21H2V46H46V21h2V47A1,1,0,0,1,47,48Z"/><path class="cls-1" d="M47,48H1a1,1,0,0,1-.95-.67,1,1,0,0,1,.33-1.12l23-18a1,1,0,0,1,1.24,0l23,18A1,1,0,0,1,48,47.33,1,1,0,0,1,47,48ZM3.9,46H44.1L24,30.27Z"/><path class="cls-1" d="M31,34.79l-1.23-1.58L45.38,21l-8-6.26,1.24-1.57,9,7a1,1,0,0,1,0,1.58Z"/><path class="cls-1" d="M17,34.79.38,21.79a1,1,0,0,1,0-1.58l9-7,1.24,1.57L2.62,21,18.23,33.21Z"/><path class="cls-1" d="M39,28H37V2H11V28H9V1a1,1,0,0,1,1-1H38a1,1,0,0,1,1,1Z"/><path class="cls-1" d="M34,32H32V10.9A5,5,0,0,1,28.1,7H19.9A5,5,0,0,1,16,10.9V32H14V10a1,1,0,0,1,1-1,3,3,0,0,0,3-3,1,1,0,0,1,1-1H29a1,1,0,0,1,1,1,3,3,0,0,0,3,3,1,1,0,0,1,1,1Z"/><path class="cls-1" d="M24,25a4,4,0,0,1-4-4h2a2,2,0,1,0,2-2,4,4,0,1,1,4-4H26a2,2,0,1,0-2,2,4,4,0,0,1,0,8Z"/><rect class="cls-1" x="23" y="9" width="2" height="3"/><rect class="cls-1" x="23" y="24" width="2" height="3"/></g></g></svg>