<svg xmlns="http://www.w3.org/2000/svg" viewBox="0 0 32 32"><title>Artboard-39</title><g id="TRuck"><path d="M28.854,15.146l-4-4A.5.5,0,0,0,24.5,11H20V7.5a.5.5,0,0,0-.5-.5H3.5a.5.5,0,0,0-.5.5v15a.5.5,0,0,0,.5.5H7.051a2.5,2.5,0,0,0,4.9,0h9.1a2.5,2.5,0,0,0,4.9,0H28.5a.5.5,0,0,0,.5-.5v-7A.5.5,0,0,0,28.854,15.146ZM4,8H19V22H11.95a2.5,2.5,0,0,0-4.9,0H4ZM9.5,24A1.5,1.5,0,1,1,11,22.5,1.5,1.5,0,0,1,9.5,24Zm14,0A1.5,1.5,0,1,1,25,22.5,1.5,1.5,0,0,1,23.5,24ZM28,22H25.95a2.538,2.538,0,0,0-2.45-2,2.528,2.528,0,0,0-2.45,2H20V12h4.293L28,15.707Z"/><path d="M7.8,12.9l3.7-2.775L15.2,12.9a.5.5,0,1,0,.6-.8l-4-3a.5.5,0,0,0-.6,0l-4,3a.5.5,0,1,0,.6.8Z"/><path d="M14.5,13a.5.5,0,0,0-.5.5v3a.5.5,0,0,1-.5.5H13V15.5a1.5,1.5,0,0,0-3,0V17H9.5a.5.5,0,0,1-.5-.5v-3a.5.5,0,0,0-1,0v3A1.5,1.5,0,0,0,9.5,18h4A1.5,1.5,0,0,0,15,16.5v-3A.5.5,0,0,0,14.5,13ZM11,17V15.5a.5.5,0,0,1,1,0V17Z"/></g></svg>